<svg xmlns="http://www.w3.org/2000/svg" width="48" height="48" viewBox="0 0 48 48">
    <g transform="translate(-.259 -.285)">
        <circle data-name="타원 62" cx="24" cy="24" r="24" transform="translate(.259 .285)" style="fill:#ffe600"/>
        <g data-name="그룹 27">
            <path data-name="패스 18432" d="M316.846 175.95c-7.887 0-14.281 5.049-14.281 11.279 0 4.008 2.65 7.517 6.628 9.525l-1.347 5.025a.417.417 0 0 0 .1.429.405.405 0 0 0 .292.12.417.417 0 0 0 .248-.1l5.787-3.908a18 18 0 0 0 2.571.189c7.886 0 14.282-5.05 14.282-11.283s-6.4-11.279-14.282-11.279" transform="translate(-292.878 -165.052)" style="fill:#381e1e"/>
            <path data-name="패스 18433" d="M311.957 199.015H310.4a1.016 1.016 0 0 1-.551-.148.606.606 0 0 1-.285-.416 1.831 1.831 0 0 1-.023-.159.627.627 0 0 1 .244-.528.967.967 0 0 1 .611-.191h4.752a1 1 0 0 1 .551.147.611.611 0 0 1 .288.417.779.779 0 0 1 .01.156.652.652 0 0 1-.237.537.961.961 0 0 1-.608.186H313.6v5.356a.857.857 0 0 1-.226.619.782.782 0 0 1-.6.235.843.843 0 0 1-.526-.168.78.78 0 0 1-.277-.466.892.892 0 0 1-.015-.22z" transform="translate(-297.258 -178.625)" style="fill:#ffe600"/>
            <path data-name="패스 18434" d="M324.11 197.734a.738.738 0 0 1 .3-.4.961.961 0 0 1 .5-.12h.4a1.045 1.045 0 0 1 .537.13.862.862 0 0 1 .34.5l1.985 5.754a3.389 3.389 0 0 1 .134.459 1.983 1.983 0 0 1 .03.2.728.728 0 0 1-.233.532.744.744 0 0 1-.547.218.7.7 0 0 1-.738-.469l-.426-1.253h-2.647l-.427 1.253a.687.687 0 0 1-.737.469.772.772 0 0 1-.485-.149.689.689 0 0 1-.252-.425.813.813 0 0 1-.015-.176.939.939 0 0 1 .045-.3 3.79 3.79 0 0 1 .111-.353zm1 1.336h-.021l-.969 3.019h1.924z" transform="translate(-304.97 -178.399)" style="fill:#ffe600"/>
            <path data-name="패스 18435" d="M339.986 198.066a.862.862 0 0 1 .225-.62.791.791 0 0 1 .6-.233.817.817 0 0 1 .527.171.784.784 0 0 1 .274.465.8.8 0 0 1 .014.218v5.357h2.747a.993.993 0 0 1 .556.147.625.625 0 0 1 .279.418.967.967 0 0 1 .023.157.634.634 0 0 1-.242.531.977.977 0 0 1-.612.189h-3.429a1.08 1.08 0 0 1-.619-.158.745.745 0 0 1-.312-.507 2.339 2.339 0 0 1-.036-.336z" transform="translate(-316.366 -178.399)" style="fill:#ffe600"/>
            <path data-name="패스 18436" d="M354.532 198.066a.87.87 0 0 1 .224-.62.791.791 0 0 1 .6-.233.811.811 0 0 1 .526.171.758.758 0 0 1 .276.465.838.838 0 0 1 .017.218v2.49l2.583-2.97a1.867 1.867 0 0 1 .313-.283.623.623 0 0 1 .342-.09.851.851 0 0 1 .491.152.611.611 0 0 1 .274.4c0 .005 0 .029.012.064a.316.316 0 0 0 0 .069.643.643 0 0 1-.075.312 1.555 1.555 0 0 1-.2.275l-1.69 1.845 2 3.166.061.1a1.714 1.714 0 0 1 .237.477c0 .006.005.027.012.052a.375.375 0 0 0 0 .052.75.75 0 0 1-.247.632.957.957 0 0 1-.6.192.827.827 0 0 1-.41-.089 1.071 1.071 0 0 1-.323-.358l-1.9-3.05-.9.941.009 1.7a.873.873 0 0 1-.226.619.788.788 0 0 1-.6.235.848.848 0 0 1-.527-.168.783.783 0 0 1-.276-.466 1.069 1.069 0 0 1-.015-.22z" transform="translate(-325.499 -178.399)" style="fill:#ffe600"/>
        </g>
    </g>
</svg>
