<svg xmlns="http://www.w3.org/2000/svg" width="16" height="16" viewBox="0 0 16 16">
    <g data-name="그룹 68957">
        <path data-name="Icon weather-refresh" d="M11.724 18.636a6.122 6.122 0 0 0 .852 3.144 6.234 6.234 0 0 0 2.292 2.28A6.068 6.068 0 0 0 18 24.9a6.2 6.2 0 0 0 3.156-.828 6.051 6.051 0 0 0 2.268-2.272 6.231 6.231 0 0 0 .828-3.156 1.024 1.024 0 0 0-.288-.732.917.917 0 0 0-.708-.3 1.024 1.024 0 0 0-1.02 1.032 4.261 4.261 0 0 1-4.26 4.26 4.007 4.007 0 0 1-2.964-1.248 4.139 4.139 0 0 1-1.224-3.012 4.433 4.433 0 0 1 .948-2.772 2.983 2.983 0 0 1 2.208-1.32l-.456.448a1.024 1.024 0 0 0-.288.7 1.058 1.058 0 0 0 .288.72.993.993 0 0 0 1.452 0l2.208-2.184a.877.877 0 0 0 .288-.744.8.8 0 0 0-.288-.684l-2.184-2.248a1.028 1.028 0 0 0-1.44.012.979.979 0 0 0-.3.72 1 1 0 0 0 .288.732l.456.432a6.173 6.173 0 0 0-3.744 2.16 6.038 6.038 0 0 0-1.5 4.02z" transform="translate(-9.724 -9.272)" style="stroke:#fff;stroke-width:.5px"/>
        <path data-name="사각형 14421" style="fill:none" d="M0 0h16v16H0z"/>
    </g>
</svg>
