<svg xmlns="http://www.w3.org/2000/svg" width="20" height="20" viewBox="0 0 20 20">
    <defs>
        <clipPath id="n43snu93ha">
            <path data-name="사각형 16060" transform="translate(-.833 -1.5)" style="fill:none" d="M0 0h20v17H0z"/>
        </clipPath>
    </defs>
    <path data-name="사각형 16061" style="fill:#fff" d="M0 0h20v20H0z"/>
    <g data-name="그룹 69691" transform="translate(.833 2.5)" style="clip-path:url(#n43snu93ha)">
        <path data-name="패스 18508" d="m8.922 5.024 3.421 3.364a3.575 3.575 0 0 0-3.421-3.364m-.174-3.107a9.026 9.026 0 0 0-2.6.378l1.115 1.092a7.661 7.661 0 0 1 8.91 5.548.673.673 0 0 0 1.307-.322 8.974 8.974 0 0 0-8.731-6.7m-1.617 5.1 3.183 3.13C8.2 12.162 5.083 9.107 7.131 7.018M1.146.194a.658.658 0 0 0-.066.862l.066.073L3.578 3.52A8.836 8.836 0 0 0 .022 8.609a.673.673 0 0 0 1.307.322 7.546 7.546 0 0 1 3.22-4.456l1.631 1.6c-3.248 3.336 1.7 8.2 5.091 5.006l2.924 2.88a.672.672 0 0 0 1.022-.866l-.066-.074L5.8 3.825l-1.021-1L2.1.194a.687.687 0 0 0-.956 0" style="fill:#666"/>
    </g>
</svg>
