<svg xmlns="http://www.w3.org/2000/svg" width="40" height="40" viewBox="0 0 40 40">
    <circle data-name="타원 2168" cx="20" cy="20" r="20" style="fill:#dc000c"/>
    <g data-name="그룹 70429">
        <path data-name="패스 18667" d="M320.486 414.96v12.406a1.366 1.366 0 0 1-1.365 1.366h-12.768a1.365 1.365 0 0 1-1.365-1.366v-18a1.365 1.365 0 0 1 1.365-1.366h7.353a.547.547 0 0 1 .392.166l6.234 6.413a.549.549 0 0 1 .154.381z" transform="translate(-292.736 -398.366)" style="fill:none;stroke:#fff;stroke-miterlimit:10;stroke-width:1.5px"/>
        <path data-name="패스 18668" d="M314.277 408.572v4.821a1.365 1.365 0 0 0 1.365 1.366h5.073" transform="translate(-293.076 -398.387)" style="fill:none;stroke:#fff;stroke-miterlimit:10;stroke-width:1.5px"/>
    </g>
</svg>
