<svg xmlns="http://www.w3.org/2000/svg" width="37" height="37" viewBox="0 0 37 37">
    <circle data-name="타원 2168" cx="18.5" cy="18.5" r="18.5" style="fill:#dc000c"/>
    <path data-name="패스 18670" d="M291.359 283.236h-4.2a.579.579 0 0 1-.579-.579v-4.2a.579.579 0 0 0-.579-.579h-5.633a.579.579 0 0 0-.579.579v4.2a.579.579 0 0 1-.579.579H275a.579.579 0 0 0-.579.579v5.633a.579.579 0 0 0 .579.579h4.2a.579.579 0 0 1 .579.579v4.2a.579.579 0 0 0 .579.579H286a.579.579 0 0 0 .579-.579v-4.2a.579.579 0 0 1 .579-.579h4.2a.579.579 0 0 0 .579-.579v-5.633a.579.579 0 0 0-.578-.579z" transform="translate(-264.682 -268.131)" style="fill:none;stroke:#fff;stroke-linecap:round;stroke-linejoin:round;stroke-width:1.5px"/>
</svg>
