<svg xmlns="http://www.w3.org/2000/svg" width="40" height="40" viewBox="0 0 40 40">
    <defs>
        <clipPath id="nb852rx8fa">
            <path data-name="사각형 15874" style="fill:#fff" d="M0 0h22v20H0z"/>
        </clipPath>
    </defs>
    <circle data-name="타원 2168" cx="20" cy="20" r="20" style="fill:#dc000c"/>
    <g data-name="그룹 69440" transform="translate(9 10)" style="clip-path:url(#nb852rx8fa)">
        <path data-name="패스 18456" d="M20.9 19.546H.883A.884.884 0 0 1 0 18.66V4.5a.884.884 0 0 1 .883-.885h4.8L7.508.442A.883.883 0 0 1 8.273 0h5.234a.883.883 0 0 1 .764.442L16.1 3.616h4.8a.884.884 0 0 1 .882.885V18.66a.884.884 0 0 1-.882.885m-19.135-1.77h18.249V5.387h-4.425a.883.883 0 0 1-.764-.443L13 1.77H8.782L6.955 4.944a.883.883 0 0 1-.764.443H1.765z" transform="translate(0 .151)" style="fill:#fff"/>
        <path data-name="패스 18457" d="M25.379 31.592a5.141 5.141 0 1 1 5.126-5.141 5.139 5.139 0 0 1-5.126 5.141m0-8.512a3.371 3.371 0 1 0 3.361 3.371 3.37 3.37 0 0 0-3.361-3.371" transform="translate(-14.49 -15.077)" style="fill:#fff"/>
        <path data-name="패스 18458" d="M61.9 24.1a.927.927 0 1 0-.927.929.928.928 0 0 0 .927-.929" transform="translate(-42.96 -16.406)" style="fill:#fff"/>
    </g>
</svg>
