<svg xmlns="http://www.w3.org/2000/svg" width="40" height="40" viewBox="0 0 40 40">
    <path data-name="패스 18662" d="M20 0A20 20 0 1 1 0 20 20 20 0 0 1 20 0z" style="fill:#dc000c"/>
    <path data-name="패스 18666" d="m351.45 262.671 2.484-9.261a1.205 1.205 0 0 1 1.126-.945h16.64a1.317 1.317 0 0 1 1.111 1.771l-2.433 7.9a.717.717 0 0 1-.665.536H351.45v-15.066a.757.757 0 0 1 .705-.8h5.245a.657.657 0 0 1 .452.186l2.454 2.325a.657.657 0 0 0 .452.186h8.979a.757.757 0 0 1 .706.8v2.162" transform="translate(-340.648 -234.871)" style="fill:none;stroke:#fff;stroke-miterlimit:10;stroke-width:1.5px"/>
</svg>
