<svg xmlns="http://www.w3.org/2000/svg" width="40" height="40" viewBox="0 0 40 40">
    <circle data-name="타원 2168" cx="20" cy="20" r="20" style="fill:#dc000c"/>
    <g data-name="그룹 70418">
        <path data-name="패스 18658" d="M391.416 411.2h-2.555a1.017 1.017 0 0 1-1.018-1.018v-6.415a1.017 1.017 0 0 1 1.018-1.018h19.467a1.018 1.018 0 0 1 1.018 1.018v6.415a1.018 1.018 0 0 1-1.018 1.018h-2.677" transform="translate(-378.595 -386.339)" style="fill:none;stroke:#fff;stroke-miterlimit:10;stroke-width:1.5px"/>
        <path data-name="사각형 16321" transform="translate(12.943 9.564)" style="fill:none;stroke:#fff;stroke-miterlimit:10;stroke-width:1.5px" d="M0 0h14.114v6.847H0z"/>
        <path data-name="패스 18659" d="M408.22 415.855v-3.8h-14.114v8.539h9.413z" transform="translate(-381.163 -390.153)" style="fill:none;stroke:#fff;stroke-miterlimit:10;stroke-width:1.5px"/>
        <path data-name="패스 18660" d="M409.388 423.076v-4.961h5.1" transform="translate(-387.43 -392.641)" style="fill:none;stroke:#fff;stroke-miterlimit:10;stroke-width:1.5px"/>
    </g>
</svg>
