<svg data-name="구성 요소 423 – 1" xmlns="http://www.w3.org/2000/svg" width="40" height="40" viewBox="0 0 40 40">
    <defs>
        <clipPath id="icixin68ha">
            <path data-name="사각형 16341" transform="translate(590 1731)" style="stroke:#707070;fill:#fff" d="M0 0h40v40H0z"/>
        </clipPath>
        <clipPath id="kaebiow18b">
            <path data-name="사각형 16340" style="fill:none" d="M0 0h31.574v29.558H0z"/>
        </clipPath>
    </defs>
    <g data-name="마스크 그룹 69343" transform="translate(-590 -1731)" style="clip-path:url(#icixin68ha)">
        <g data-name="그룹 70423">
            <g data-name="그룹 70422" transform="translate(594 1736.222)" style="clip-path:url(#kaebiow18b)">
                <path data-name="패스 18555" d="M33.543 9.174a.764.764 0 0 0 .764-.764V2.994A3 3 0 0 0 31.313 0H7.744A3 3 0 0 0 4.75 2.994v17.2a3 3 0 0 0 2.994 2.994h7.2v4.841h-3.06a.765.765 0 0 0 0 1.529h15.289a.765.765 0 0 0 0-1.529h-3.058v-4.841h7.2a3 3 0 0 0 2.994-2.994v-6.689a.764.764 0 1 0-1.528 0v6.689a1.467 1.467 0 0 1-1.466 1.465H7.744a1.467 1.467 0 0 1-1.466-1.465v-17.2a1.467 1.467 0 0 1 1.466-1.465h23.57a1.467 1.467 0 0 1 1.466 1.465V8.41a.764.764 0 0 0 .764.764M22.587 28.029H16.47v-4.841h6.116z" transform="translate(-2.733)" style="fill:#141414"/>
                <path data-name="패스 18556" d="M56.731 12.091a.737.737 0 0 0 .764-.707V7.846a.767.767 0 0 0-1.529 0v3.538a.737.737 0 0 0 .764.707" transform="translate(-30.199 -3.107)" style="fill:#141414"/>
                <path data-name="패스 18557" d="M56.731 32.091a.737.737 0 0 0 .764-.707v-3.538a.767.767 0 0 0-1.529 0v3.538a.737.737 0 0 0 .764.707" transform="translate(-30.199 -12.613)" style="fill:#141414"/>
                <path data-name="패스 18558" d="M57.466 21.649a.849.849 0 1 1-.849-.849.849.849 0 0 1 .849.849" transform="translate(-30.084 -9.966)" style="fill:#141414"/>
                <g data-name="그룹 70424" transform="translate(2 -.361)">
                    <path data-name="패스 18560" d="m2.221 41.971 3.344-2.948 3.418 3.539-4.325 4.794z" transform="translate(-3.328 -20.898)" style="fill:#fff"/>
                    <path data-name="패스 18561" d="M25.139 18.595a6.795 6.795 0 1 1-6.795-6.795 6.795 6.795 0 0 1 6.795 6.795" transform="translate(-6.645 -6.789)" style="fill:#fff"/>
                    <circle data-name="타원 2197" cx="6.795" cy="6.795" r="6.795" transform="translate(4.904 5.011)" style="stroke:#fff;stroke-miterlimit:10;stroke-width:1.5px;fill:none"/>
                    <path data-name="패스 18562" d="M18.22 10.8a7.368 7.368 0 1 0 7.367 7.367A7.376 7.376 0 0 0 18.22 10.8m0 13.707a6.339 6.339 0 1 1 6.34-6.34 6.347 6.347 0 0 1-6.34 6.34" transform="translate(-6.244 -6.213)" style="fill:#141414"/>
                    <path data-name="패스 18563" d="M17.789 10.05a7.686 7.686 0 1 1-7.689 7.686 7.695 7.695 0 0 1 7.689-7.686zm0 14.735a7.049 7.049 0 1 0-7.049-7.049 7.057 7.057 0 0 0 7.049 7.049zm0-13.707a6.658 6.658 0 1 1-6.659 6.658 6.666 6.666 0 0 1 6.659-6.658zm0 12.679a6.021 6.021 0 1 0-6.022-6.021 6.028 6.028 0 0 0 6.022 6.021z" transform="translate(-5.813 -5.782)" style="fill:#141414"/>
                    <path data-name="패스 18564" d="M6.545 40.039.9 45.683a.514.514 0 1 0 .726.727l5.644-5.644a.514.514 0 1 0-.726-.727" transform="translate(-.432 -22.948)" style="fill:#141414"/>
                    <path data-name="패스 18565" d="M6.477 39.138a.833.833 0 0 1 .588 1.421L1.421 46.2a.831.831 0 0 1-1.177 0 .832.832 0 0 1 0-1.177l5.644-5.644a.827.827 0 0 1 .589-.241zM.833 45.811a.194.194 0 0 0 .138-.057l5.644-5.644a.2.2 0 0 0 0-.277.194.194 0 0 0-.276 0L.695 45.477a.2.2 0 0 0 .138.334z" transform="translate(0 -22.517)" style="fill:#141414"/>
                    <path data-name="패스 18566" d="m26.194 23.349-2.639 3.3-1.735-1.734a.514.514 0 0 0-.726.727l2.14 2.14a.513.513 0 0 0 .363.151h.028A.515.515 0 0 0 24 27.74l3-3.748a.514.514 0 1 0-.8-.643" transform="translate(-12.049 -13.322)" style="fill:#141414"/>
                    <path data-name="패스 18567" d="M26.166 22.407a.832.832 0 0 1 .648 1.353l-3 3.748a.834.834 0 0 1-.6.311h-.046a.827.827 0 0 1-.588-.244l-2.14-2.14a.832.832 0 1 1 1.177-1.177l1.483 1.483 2.417-3.022a.835.835 0 0 1 .649-.312zm-2.988 4.776a.2.2 0 0 0 .141-.073l3-3.748a.2.2 0 0 0-.03-.275.191.191 0 0 0-.121-.043.2.2 0 0 0-.156.074l-2.86 3.576-1.986-1.986a.194.194 0 0 0-.276 0 .2.2 0 0 0 0 .277l2.14 2.14a.2.2 0 0 0 .148.057z" transform="translate(-11.617 -12.891)" style="fill:#141414"/>
                </g>
            </g>
        </g>
    </g>
</svg>
