<svg data-name="구성 요소 422 – 1" xmlns="http://www.w3.org/2000/svg" width="40" height="40" viewBox="0 0 40 40">
    <defs>
        <clipPath id="ku9srhsnra">
            <path data-name="사각형 16338" style="fill:#fff;stroke:#111" d="M0 0h40v40H0z"/>
        </clipPath>
        <clipPath id="3l01tw9djb">
            <path data-name="사각형 16337" style="fill:#111" d="M0 0h31.274v31.275H0z"/>
        </clipPath>
    </defs>
    <g data-name="마스크 그룹 69342" style="clip-path:url(#ku9srhsnra)">
        <g data-name="그룹 70421">
            <g data-name="그룹 70420" style="clip-path:url(#3l01tw9djb)" transform="translate(4.363 4.362)">
                <path data-name="패스 18551" d="M29.145 10.81H7.009V1.778a.161.161 0 0 1 .161-.16H24.1a.161.161 0 0 1 .161.16v5.771a.808.808 0 1 0 1.616 0V1.778A1.779 1.779 0 0 0 24.1 0H7.169a1.779 1.779 0 0 0-1.777 1.778v9.032H2.129A2.132 2.132 0 0 0 0 12.941v10.81a2.133 2.133 0 0 0 2.129 2.132H3.5a.809.809 0 0 0 0-1.618H2.129a.514.514 0 0 1-.512-.514v-10.81a.514.514 0 0 1 .512-.513h27.016a.514.514 0 0 1 .512.513v10.81a.514.514 0 0 1-.512.514h-1.376a.809.809 0 0 0 0 1.618h1.376a2.133 2.133 0 0 0 2.129-2.132v-10.81a2.132 2.132 0 0 0-2.129-2.131" style="fill:#111"/>
                <path data-name="패스 18552" d="M32.186 39.809a.809.809 0 0 0-.809-.809H9.808a.809.809 0 0 0 0 1.618H11.7v10.088a2.046 2.046 0 0 0 2.045 2.045h13.7a2.046 2.046 0 0 0 2.045-2.045V40.618h1.888a.809.809 0 0 0 .808-.809m-4.313 10.9a.428.428 0 0 1-.428.426h-13.7a.428.428 0 0 1-.428-.426v-9.664a.428.428 0 0 1 .428-.426h13.7a.428.428 0 0 1 .428.426z" transform="translate(-4.956 -21.475)" style="fill:#111"/>
                <path data-name="패스 18553" d="M33.2 57h-5.392a.809.809 0 0 0 0 1.618H33.2a.809.809 0 0 0 0-1.618" transform="translate(-14.867 -31.387)" style="fill:#111"/>
                <path data-name="패스 18554" d="M33.2 48h-5.392a.809.809 0 0 0 0 1.618H33.2a.809.809 0 0 0 0-1.618" transform="translate(-14.867 -26.431)" style="fill:#111"/>
            </g>
        </g>
    </g>
</svg>
